{"title":"Poltergeist (1982) DVDRip XviD AC3 peaSoup","uid":8789413,"size":1247981666,"categoryP":"video","categoryS":"movies","magnet":"?xt=urn:btih:f843879ae3cba6e2f764640407947381787944db&amp;dn=Poltergeist+%281982%29+DVDRip+XviD+AC3+peaSoup&amp;tr=udp%3A%2F%2Ftracker.openbittorrent.com%3A80&amp;tr=udp%3A%2F%2Fopen.demonii.com%3A1337&amp;tr=udp%3A%2F%2Ftracker.coppersurfer.tk%3A6969&amp;tr=udp%3A%2F%2Fexodus.desync.com%3A6969","seeders":5,"leechers":1,"uploader":"peaSoup","files":3,"time":1375902991,"description":"Storyline\n\nA young family are visited by ghosts in their home. At first the ghosts appear friendly, moving objects around the house to the amusement of everyone, then they turn nasty and start to terrorise the family before they &quot;kidnap&quot; the youngest daughter.                                                                           &lt;a href=&quot; http://imageshack.us/a/img855/3081/sw4r.jpg&quot; rel=&quot;nofollow&quot; target=&quot;_NEW&quot;&gt; http://imageshack.us/a/img855/3081/sw4r.jpg&lt;/a&gt;                                         &lt;a href=&quot; http://imageshack.us/a/img14/5831/tb67.jpg&quot; rel=&quot;nofollow&quot; target=&quot;_NEW&quot;&gt; http://imageshack.us/a/img14/5831/tb67.jpg&lt;/a&gt;                                          &lt;a href=&quot; http://imageshack.us/a/img838/2273/zk1j.jpg&quot; rel=&quot;nofollow&quot; target=&quot;_NEW&quot;&gt; http://imageshack.us/a/img838/2273/zk1j.jpg&lt;/a&gt;                                         &lt;a href=&quot; http://imageshack.us/a/img33/7674/qzqq.jpg&quot; rel=&quot;nofollow&quot; target=&quot;_NEW&quot;&gt; http://imageshack.us/a/img33/7674/qzqq.jpg&lt;/a&gt;                                           Format                                   : AVI\nFormat/Info                              : Audio Video Interleave\nFormat profile                           : OpenDML\nFile size                                : 1.13 GiB\nDuration                                 : 1h 49mn\nOverall bit rate                         : 1 477 Kbps\nMovie name                               : Poltergeist (1982) DVDRip XviD AC3 peaSoup\nWriting application                      : Lavf53.21.0\nOriginal source form/Name                : POLTERGEIST\n\nVideo\nID                                       : 0\nFormat                                   : MPEG-4 Visual\nFormat profile                           : Advanced Simple@L5\nFormat settings, BVOP                    : 2\nFormat settings, QPel                    : No\nFormat settings, GMC                     : No warppoints\nFormat settings, Matrix                  : Default (H.263)\nMuxing mode                              : Packed bitstream\nCodec ID                                 : XVID\nCodec ID/Hint                            : XviD\nDuration                                 : 1h 49mn\nBit rate                                 : 1 079 Kbps\nWidth                                    : 720 pixels\nHeight                                   : 300 pixels\nDisplay aspect ratio                     : 2.40:1\nFrame rate                               : 25.000 fps\nColor space                              : YUV\nChroma subsampling                       : 4:2:0\nBit depth                                : 8 bits\nScan type                                : Progressive\nCompression mode                         : Lossy\nBits/(Pixel*Frame)                       : 0.200\nStream size                              : 847 MiB (73%)\nWriting library                          : XviD 1.2.1 (UTC 2008-12-04)\n\nAudio\nID                                       : 1\nFormat                                   : AC-3\nFormat/Info                              : Audio Coding 3\nMode extension                           : CM (complete main)\nFormat settings, Endianness              : Big\nCodec ID                                 : 2000\nDuration                                 : 1h 49mn\nBit rate mode                            : Constant\nBit rate                                 : 384 Kbps\nChannel(s)                               : 6 channels\nChannel positions                        : Front: L C R, Side: L R, LFE\nSampling rate                            : 48.0 KHz\nBit depth                                : 16 bits\nCompression mode                         : Lossy\nStream size                              : 301 MiB (26%)\nAlignment                                : Aligned on interleaves\nInterleave, duration                     : 32 ms (0.80 video frame)\n\n                                                                                  &lt;a href=&quot; http://imageshack.us/a/img542/7025/9re4.jpg&quot; rel=&quot;nofollow&quot; target=&quot;_NEW&quot;&gt; http://imageshack.us/a/img542/7025/9re4.jpg&lt;/a&gt;","torrent":{"xt":"urn:btih:f843879ae3cba6e2f764640407947381787944db","amp;dn":"Poltergeist+%281982%29+DVDRip+XviD+AC3+peaSoup","amp;tr":["udp%3A%2F%2Ftracker.openbittorrent.com%3A80","udp%3A%2F%2Fopen.demonii.com%3A1337","udp%3A%2F%2Ftracker.coppersurfer.tk%3A6969","udp%3A%2F%2Fexodus.desync.com%3A6969"],"infoHash":"f843879ae3cba6e2f764640407947381787944db","infoHashBuffer":{"type":"Buffer","data":[248,67,135,154,227,203,166,226,247,100,100,4,7,148,115,129,120,121,68,219]},"announce":[],"urlList":[]}}